# xmcd CD Database Entry
#
# Track frame offsets:
# 182
# 13412
# 28180
# 43550
# 57632
# 71142
# 85610
# 99945
# 113280
# 126732
# 137637
# 152527
# 167607
# 180857
# 195615
# 210875
#
# Disc length: 3001 seconds
#
# Revision: 1
# Processed by: cddbd v1.4b42PL1 Copyright (c) Steve Scherf et al.
# Submitted via: tcd 2.0b
#
DISCID=cf0bb710
DTITLE=Billie Holiday - The Legend of Billie Holiday
DYEAR=1900
DGENRE=
TTITLE0=That Ole Devil Called Love
TTITLE1=Lover Man (Oh, Where Can You Be?)
TTITLE2=Don't Explain
TTITLE3=Good Morning Heartache
TTITLE4=There is No Greater Love
TTITLE5=Easy Living
TTITLE6=Solitude
TTITLE7=Progy
TTITLE8=My Man (Mon Homme)
TTITLE9=Them There Eyes
TTITLE10=Now Or Never
TTITLE11=T'aint Bobody's Business if I Do
TTITLE12=Somebody's on My Mind
TTITLE13=Keeps On Rainin' Papa He Can't Make No Time
TTITLE14=You're My Thrill
TTITLE15=God Bless the Child
EXTD=
EXTT0=
EXTT1=
EXTT2=
EXTT3=
EXTT4=
EXTT5=
EXTT6=
EXTT7=
EXTT8=
EXTT9=
EXTT10=
EXTT11=
EXTT12=
EXTT13=
EXTT14=
EXTT15=
PLAYORDER=
